<svg width="40" height="40" viewBox="0 0 40 40" fill="none" xmlns="http://www.w3.org/2000/svg">
<path d="M20.002 14C18.4107 14 16.8846 14.6321 15.7594 15.7574C14.6341 16.8826 14.002 18.4087 14.002 20C14.002 21.5913 14.6341 23.1174 15.7594 24.2426C16.8846 25.3679 18.4107 26 20.002 26C21.5933 26 23.1194 25.3679 24.2446 24.2426C25.3699 23.1174 26.002 21.5913 26.002 20C26.002 18.4087 25.3699 16.8826 24.2446 15.7574C23.1194 14.6321 21.5933 14 20.002 14ZM20.002 10C22.6542 10 25.1977 11.0536 27.0731 12.9289C28.9484 14.8043 30.002 17.3478 30.002 20C30.002 22.6522 28.9484 25.1957 27.0731 27.0711C25.1977 28.9464 22.6542 30 20.002 30C17.3498 30 14.8063 28.9464 12.9309 27.0711C11.0556 25.1957 10.002 22.6522 10.002 20C10.002 17.3478 11.0556 14.8043 12.9309 12.9289C14.8063 11.0536 17.3498 10 20.002 10ZM33.002 9.5C33.002 10.163 32.7386 10.7989 32.2698 11.2678C31.8009 11.7366 31.165 12 30.502 12C29.839 12 29.2031 11.7366 28.7342 11.2678C28.2654 10.7989 28.002 10.163 28.002 9.5C28.002 8.83696 28.2654 8.20107 28.7342 7.73223C29.2031 7.26339 29.839 7 30.502 7C31.165 7 31.8009 7.26339 32.2698 7.73223C32.7386 8.20107 33.002 8.83696 33.002 9.5ZM20.002 4C15.054 4 14.246 4.014 11.944 4.116C10.376 4.19 9.324 4.4 8.348 4.78C7.53166 5.08074 6.79344 5.56127 6.188 6.186C5.56255 6.79124 5.08132 7.52948 4.78 8.346C4.4 9.326 4.19 10.376 4.118 11.942C4.014 14.15 4 14.922 4 20C4 24.95 4.014 25.756 4.116 28.058C4.19 29.624 4.4 30.678 4.778 31.652C5.118 32.522 5.518 33.148 6.182 33.812C6.856 34.484 7.482 34.886 8.342 35.218C9.33 35.6 10.382 35.812 11.942 35.884C14.15 35.988 14.922 36 20 36C24.95 36 25.756 35.986 28.058 35.884C29.622 35.81 30.674 35.6 31.652 35.222C32.4683 34.9213 33.2066 34.4407 33.812 33.816C34.486 33.144 34.888 32.518 35.22 31.656C35.6 30.672 35.812 29.62 35.884 28.056C35.988 25.85 36 25.076 36 20C36 15.052 35.986 14.244 35.884 11.942C35.81 10.378 35.598 9.322 35.22 8.346C34.9193 7.52966 34.4387 6.79144 33.814 6.186C33.2088 5.56055 32.4705 5.07932 31.654 4.778C30.674 4.398 29.622 4.188 28.058 4.116C25.852 4.012 25.08 4 20 4M20 0C25.434 0 26.112 0.0199999 28.246 0.12C30.374 0.22 31.826 0.554 33.1 1.05C34.42 1.558 35.532 2.246 36.644 3.356C37.6614 4.35546 38.4484 5.56494 38.95 6.9C39.444 8.174 39.78 9.626 39.88 11.756C39.974 13.888 40 14.566 40 20C40 25.434 39.98 26.112 39.88 28.244C39.78 30.376 39.444 31.824 38.95 33.1C38.4484 34.4351 37.6614 35.6445 36.644 36.644C35.6445 37.6614 34.4351 38.4484 33.1 38.95C31.826 39.444 30.374 39.78 28.246 39.88C26.112 39.974 25.434 40 20 40C14.566 40 13.888 39.98 11.754 39.88C9.626 39.78 8.176 39.444 6.9 38.95C5.56494 38.4484 4.35546 37.6614 3.356 36.644C2.33861 35.6445 1.55163 34.4351 1.05 33.1C0.554 31.826 0.22 30.374 0.12 28.244C0.0239999 26.112 0 25.434 0 20C0 14.566 0.0199999 13.888 0.12 11.756C0.22 9.624 0.554 8.176 1.05 6.9C1.55163 5.56494 2.33861 4.35546 3.356 3.356C4.35546 2.33861 5.56494 1.55163 6.9 1.05C8.174 0.554 9.624 0.22 11.754 0.12C13.89 0.0259999 14.568 0 20.002 0" fill="#69D1A2"/>
</svg>
