<svg width="40" height="40" viewBox="0 0 40 40" fill="none" xmlns="http://www.w3.org/2000/svg">
<path d="M20 0C31.046 0 40 8.954 40 20C40 31.046 31.046 40 20 40C16.5959 40.0048 13.2474 39.1372 10.274 37.48L9.66401 37.124L3.60001 38.908C3.27002 39.0052 2.92066 39.0166 2.58505 38.941C2.24944 38.8653 1.9387 38.7053 1.68229 38.4759C1.42588 38.2465 1.2323 37.9555 1.1199 37.6303C1.0075 37.3052 0.980003 36.9567 1.04002 36.618L1.09202 36.4L2.87602 30.336C0.990123 27.2185 -0.00462488 23.6435 1.61657e-05 20C1.61657e-05 8.954 8.95401 0 20 0ZM20 4C17.1353 3.99948 14.3229 4.76811 11.8567 6.22563C9.39042 7.68314 7.36072 9.77608 5.97954 12.2859C4.59835 14.7957 3.91634 17.6303 4.00473 20.4936C4.09312 23.357 4.94866 26.1442 6.48201 28.564C6.87801 29.188 7.04801 29.956 6.91401 30.718L6.83601 31.044L5.95401 34.046L8.95601 33.164C9.82201 32.908 10.722 33.064 11.436 33.518C13.5327 34.8456 15.9094 35.6672 18.3783 35.9181C20.8472 36.1689 23.3406 35.842 25.6614 34.9632C27.9822 34.0844 30.0668 32.6778 31.7504 30.8546C33.4339 29.0314 34.6703 26.8415 35.3618 24.4582C36.0532 22.0749 36.1808 19.5633 35.7345 17.1222C35.2881 14.6811 34.2801 12.3772 32.79 10.3927C31.2999 8.4083 29.3686 6.79766 27.1488 5.68816C24.9291 4.57866 22.4816 4.00071 20 4ZM14.204 10.368C14.4257 10.2731 14.668 10.237 14.9077 10.2633C15.1474 10.2896 15.3762 10.3773 15.572 10.518C16.58 11.254 17.38 12.242 18.068 13.206L18.722 14.154L19.028 14.604C19.2052 14.8619 19.2923 15.1711 19.2756 15.4836C19.259 15.7961 19.1396 16.0944 18.936 16.332L18.786 16.484L16.938 17.856C16.8501 17.9212 16.7883 18.0156 16.7637 18.1223C16.7392 18.229 16.7534 18.3409 16.804 18.438C17.224 19.198 17.966 20.332 18.818 21.184C19.672 22.036 20.858 22.828 21.67 23.294C21.846 23.394 22.058 23.362 22.202 23.232L22.278 23.142L23.48 21.312C23.7003 21.0176 24.0263 20.8202 24.3892 20.7612C24.7522 20.7023 25.1238 20.7865 25.426 20.996L26.512 21.754C27.592 22.524 28.63 23.352 29.452 24.402C29.6041 24.5993 29.7008 24.8336 29.7321 25.0808C29.7633 25.328 29.7281 25.579 29.63 25.808C28.838 27.656 26.832 29.23 24.748 29.154L24.43 29.134L24.048 29.098L23.832 29.07L23.356 28.99C21.508 28.642 18.546 27.594 15.476 24.526C12.408 21.456 11.36 18.494 11.012 16.646L10.932 16.17L10.882 15.754L10.856 15.404L10.848 15.254C10.772 13.166 12.354 11.16 14.204 10.368Z" fill="#69D1A2"/>
</svg>
